<?xml version="1.0" encoding="utf-8"?>
<!--
	Created by Elijah Schow for CMS Airship
	Modified by Paragon Initiative Enterprises, LLC
-->
<svg
	version="1.1"
	id="Layer_1"
	xmlns="http://www.w3.org/2000/svg"
	xmlns:xlink="http://www.w3.org/1999/xlink"
	x="0px"
	y="0px"
	viewBox="0 0 1000 1000"
	style="enable-background: new 0 0 1000 1000;"
	xml:space="preserve"
>
<style type="text/css">
	.st0{
		fill: #2F3450;
		stroke: #000000;
	}
	.st1{
		fill: #515959;
	}
	.st2{
		fill: #FFFFFF;
	}
	.st3{
		fill: #FFFFFF;
		-webkit-filter:
					drop-shadow(0 0 10px rgba(0, 0, 0, 0.75));
	            filter:
					drop-shadow(0 0 10px rgba(0, 0, 0, 0.75));
	}
</style>
<circle class="st3" cx="500" cy="500" r="440" />
<circle class="st0" cx="500" cy="500" r="400" />
<g transform="rotate(-30 500 500)">
	<g transform="translate(-50) scale(10)">
		<g>
			<path class="st2" d="M23.6,52.7c4.8,2.8,16.2,5.2,31.4,5.2h17.1c4.7,0,8.9-0.9,11.9-2.5L23.6,52.7z"/>
			<path class="st2" d="M87.7,52.7c0.7-0.9,1.1-1.9,1.1-2.9c0-4.5-7.5-8.1-16.6-8.1H55c-20.2,0-33.8,4.2-33.8,8.1
				c0,1,0.8,1.9,2.4,2.9H87.7z" />
		</g>
		<polygon class="st2" points="61.2,58.9 63.6,61.3 69.3,61.3 71.6,58.9 " />
		<path class="st2" d="M23.6,53.8v4.6h5.7l1.9-1.9C28.1,55.7,25.5,54.9,23.6,53.8z" />
		<path class="st2" d="M31.2,43.2l-1.9-1.9h-5.7v4.6C25.5,44.8,28.1,43.9,31.2,43.2z" />
	</g>
</g>
</svg>
